# xmcd
#
# Track frame offsets: 
#        150
#        9533
#        19889
#        28337
#        38854
#        51249
#        61185
#        74194
#        85050
#        96196
#        110202
#        120361
#        133384
#        145738
#        158154
#        170693
#
# Disc length: 2423 seconds
#
# Revision: 0
# Processed by: cddbd v1.5.2PL0 Copyright (c) Steve Scherf et al.
# Submitted via: ExactAudioCopy v1.0b4
#
DISCID=e9097510
DTITLE=Roy Orbison - Only The Lonly CD 2
DYEAR=1900
DGENRE=R&B
TTITLE0=Uptown
TTITLE1=Pretty One
TTITLE2=Raindrops
TTITLE3=Blue Avenue
TTITLE4=Here Comes That song Again
TTITLE5=Today's Teardrops
TTITLE6=Blue Angel
TTITLE7=I'll Say It's My Fault
TTITLE8=Come Back To Me (My Love)
TTITLE9=(I'd Be) A Legend In My Time
TTITLE10=Bye Bye Love
TTITLE11=Twenty-two Days
TTITLE12=Cry
TTITLE13=I Can*t Stop Loving You
TTITLE14=I'm Hurtin'
TTITLE15=Only The Lonlely
EXTD=
EXTT0=
EXTT1=
EXTT2=
EXTT3=
EXTT4=
EXTT5=
EXTT6=
EXTT7=
EXTT8=
EXTT9=
EXTT10=
EXTT11=
EXTT12=
EXTT13=
EXTT14=
EXTT15=
PLAYORDER=
